<?xml version="1.0" standalone="no"?>
<!DOCTYPE svg PUBLIC "-//W3C//DTD SVG 1.1//EN" "http://www.w3.org/Graphics/SVG/1.1/DTD/svg11.dtd">
<svg width="100%" height="100%" viewBox="0 0 1024 1024" version="1.1" xmlns="http://www.w3.org/2000/svg" xmlns:xlink="http://www.w3.org/1999/xlink" xml:space="preserve" style="fill-rule:evenodd;clip-rule:evenodd;stroke-linejoin:round;stroke-miterlimit:1.41421;">
    <g id="Cube" transform="matrix(1,0,0,1,54.0533,-31.8117)">
        <g id="Right" transform="matrix(1,0,0,1,115.19,-24.1883)">
            <path d="M746.65,342.217L345.947,542.568L345.947,1000.51L746.65,800.163L746.65,342.217Z" style="fill:rgb(160,160,160);"/>
        </g>
        <g id="Top" transform="matrix(1,0,0,1,-59.8099,-197.553)">
            <path d="M921.65,515.582L520.947,315.23L120.243,515.582L520.947,715.933L921.65,515.582Z" style="fill:rgb(200,200,200);"/>
        </g>
        <g id="Left" transform="matrix(1,0,0,1,3.19006,3.19006)">
            <path d="M457.947,515.19L57.243,314.838L57.243,772.785L457.947,973.137L457.947,515.19Z" style="fill:rgb(240,240,240);"/>
        </g>
        <g>
            <g transform="matrix(1.5,0,0,1.5,-368.892,17.5009)">
                <path d="M706.001,410.244L553.352,333.919C553.352,333.919 415.544,402.824 401.804,409.694C401.595,409.798 401.464,410.011 401.464,410.244C401.464,410.477 401.595,410.69 401.804,410.794C415.544,417.664 553.352,486.568 553.352,486.568L706.001,410.244Z" style="fill:url(#_Linear1);"/>
            </g>
            <g transform="matrix(1.5,0,0,1.5,-256.798,-98.1821)">
                <path d="M631.272,334.717L478.623,258.393C478.623,258.393 478.623,402.288 478.623,410.661C478.623,410.894 478.755,411.107 478.963,411.211C486.904,415.182 631.272,487.366 631.272,487.366L631.272,334.717Z" style="fill:url(#_Linear2);"/>
            </g>
            <g transform="matrix(1.5,0,0,1.5,-484.176,-102.17)">
                <path d="M630.208,413.7L630.208,261.051C630.208,261.051 485.84,333.235 477.9,337.205C477.691,337.31 477.56,337.523 477.56,337.756C477.56,346.129 477.56,490.024 477.56,490.024L630.208,413.7Z" style="fill:url(#_Linear3);"/>
            </g>
        </g>
        <g>
            <g id="Upper" transform="matrix(1.5,0,0,1.5,-372.082,-155.824)">
                <path d="M669.966,392.226L555.479,334.983C555.479,334.983 453.828,385.809 442.093,391.676C441.884,391.78 441.753,391.993 441.753,392.226C441.753,392.459 441.884,392.672 442.093,392.776C453.828,398.644 555.479,449.47 555.479,449.47L669.966,392.226Z" style="fill:rgb(200,200,200);"/>
            </g>
            <g id="Left1" transform="matrix(1.5,0,0,1.5,-368.892,-39.7424)">
                <path d="M553.352,372.082L438.866,314.838C438.866,314.838 438.369,421.474 438.336,428.677C438.335,428.911 438.466,429.125 438.676,429.23C445.535,432.66 553.352,486.568 553.352,486.568L553.352,372.082Z" style="fill:rgb(240,240,240);"/>
            </g>
            <g id="Right1" transform="matrix(1.5,0,0,1.5,-368.892,-40.54)">
                <path d="M667.839,429.857L667.839,315.37C667.839,315.37 560.518,369.03 553.692,372.443C553.484,372.548 553.352,372.761 553.352,372.994C553.352,380.188 553.352,487.1 553.352,487.1L667.839,429.857Z" style="fill:rgb(160,160,160);"/>
            </g>
        </g>
    </g>
    <defs>
        <linearGradient id="_Linear1" x1="0" y1="0" x2="1" y2="0" gradientUnits="userSpaceOnUse" gradientTransform="matrix(7.01029e-15,114.487,-114.487,7.01029e-15,553.352,372.082)"><stop offset="0%" style="stop-color:rgb(160,160,160);stop-opacity:1"/><stop offset="100%" style="stop-color:rgb(200,200,200);stop-opacity:1"/></linearGradient>
        <linearGradient id="_Linear2" x1="0" y1="0" x2="1" y2="0" gradientUnits="userSpaceOnUse" gradientTransform="matrix(114.487,-57.2433,57.2433,114.487,516.785,391.96)"><stop offset="0%" style="stop-color:rgb(200,200,200);stop-opacity:1"/><stop offset="100%" style="stop-color:rgb(240,240,240);stop-opacity:1"/></linearGradient>
        <linearGradient id="_Linear3" x1="0" y1="0" x2="1" y2="0" gradientUnits="userSpaceOnUse" gradientTransform="matrix(124.027,62.0136,-62.0136,124.027,477.56,337.375)"><stop offset="0%" style="stop-color:rgb(160,160,160);stop-opacity:1"/><stop offset="100%" style="stop-color:rgb(103,103,103);stop-opacity:1"/></linearGradient>
    </defs>
</svg>
